<?xml version="1.0" encoding="utf-8"?>
<svg xmlns="http://www.w3.org/2000/svg" viewBox="7.5962 1.5122 479.3704 496.6477" width="479.37px" height="496.648px">
  <g transform="matrix(0.025446001440286636, 0, 0, -0.025446001440286636, -18.800651652851226, 489.72171306936065)" fill="#ffffff">
    <g>
      <g>
        <g>
          <path d="M 9625.38 18400.3 L 9625.38 17614.5 L 9348.98 17595.6 C 8351.83 17530.5 7265.25 17251.4 6292.52 16809.7 C 4850.97 16153.9 3580.14 15100 2648.02 13785.7 C 1859.51 12672.1 1333.83 11347 1111.64 9924.43 C 1041.19 9469.32 1014.09 8333.89 1060.15 7832.59 C 1420.54 3984.88 4200.65 801.025 7972.57 -85.031 C 8915.41 -307.23 9302.93 -331.61 11825.7 -331.61 L 13906.6 -331.61 L 13906.6 88.381 L 13906.6 508.388 L 14754.9 513.804 L 15600.2 521.936 L 15608.3 936.512 L 15616.6 1348.37 L 14760.2 1348.37 L 13906.6 1348.37 L 13906.6 925.68 L 13906.6 502.958 L 11652.3 516.52 C 9768.97 524.636 9343.67 535.483 9086.15 570.708 C 7701.48 765.8 6590.58 1180.38 5506.71 1906.57 C 4157.31 2806.18 3068.01 4152.89 2463.76 5656.77 C 2100.66 6561.84 1916.41 7445.06 1883.89 8442.36 L 1867.63 8962.55 L 5338.72 8962.55 L 8812.55 8962.55 L 8817.86 8144.26 L 8826.13 7323.17 L 10527.8 7315.05 L 12226.6 7309.59 L 12226.6 6889.6 L 12226.6 6469.61 L 12646.6 6469.61 L 13066.6 6469.61 L 13066.6 7323.17 L 13066.6 8176.73 L 11359.7 8176.73 L 9649.73 8176.73 L 9657.85 8564.25 L 9666.11 8948.98 L 14771.1 8957.09 L 19876.1 8962.55 L 19859.9 9593.87 C 19840.8 10317.4 19778.6 10848.5 19635 11496.1 C 19529.3 11973 19288 12726.3 19109.3 13148.9 C 17889.9 16018.5 15413.2 18145.6 12429.9 18890.8 C 11687.4 19075 11096.7 19150.8 10270.3 19169.9 L 9625.38 19186.1 L 9625.38 18400.3 Z M 11034.4 18283.8 C 12091.2 18178.2 13207.6 17836.7 14191.1 17324.6 C 16600.1 16067.3 18334.3 13753.2 18851.8 11097.8 C 18927.7 10710.3 19000.9 10135.8 19000.9 9929.89 L 19000.9 9802.54 L 15608.3 9808 L 12213.1 9816.11 L 12023.4 9878.39 C 11267.4 10133.1 10749.9 10669.7 10541.2 11417.6 L 10481.6 11631.6 L 10470.8 14948.3 C 10468.2 16771.8 10468.2 18281 10476.3 18300.1 C 10489.7 18338 10489.7 18338 11034.4 18283.8 Z M 9633.5 14159.6 C 9641.61 11772.5 9647.07 11534 9690.46 11347 C 9823.28 10791.6 10034.6 10374.2 10389.5 9959.7 L 10525 9802.54 L 6241.03 9802.54 C 2832.28 9802.54 1957.06 9810.65 1957.06 9837.81 C 1957.06 9854.04 1992.28 10046.5 2038.34 10263.1 C 2683.25 13447 5227.62 15975.2 8433.14 16617.3 C 8779.94 16687.8 9302.93 16758.2 9508.95 16763.7 L 9622.73 16766.3 L 9633.5 14159.6 Z" style=""/>
          <path d="M 12248.3 13165.3 C 11741.7 13002.7 11405.7 12590.8 11346.1 12057 C 11294.6 11618 11541.2 11105.9 11920.4 10864.8 C 12329.7 10604.6 12909.5 10601.9 13307.8 10856.6 C 13993.4 11298.3 14101.7 12265.7 13527.4 12840 C 13196.8 13173.4 12681.9 13303.4 12248.3 13165.3 Z" style=""/>
        </g>
      </g>
    </g>
    <g>
      <path d="M 15613.8 6049.61 L 15613.8 3922.56 L 17740.9 3922.56 L 19868 3922.56 L 19862.5 6044.3 L 19854.4 8163.15 L 17735.4 8171.27 L 15613.8 8176.73 L 15613.8 6049.61 Z M 19022.6 6044.3 L 19028 4762.56 L 17740.9 4762.56 L 16453.8 4762.56 L 16453.8 6049.61 L 16453.8 7336.74 L 17735.4 7331.28 L 19014.4 7323.17 L 19022.6 6044.3 Z" style=""/>
      <path d="M 17320.9 6049.61 L 17320.9 5629.62 L 17740.9 5629.62 L 18160.9 5629.62 L 18160.9 6049.61 L 18160.9 6469.61 L 17740.9 6469.61 L 17320.9 6469.61 L 17320.9 6049.61 Z" style=""/>
      <path d="M 8812.55 5196.11 L 8812.55 3922.56 L 10926.1 3922.56 L 13039.6 3922.56 L 13039.6 4776.1 L 13039.6 5632.43 L 12627.8 5624.31 L 12213.1 5616.05 L 12205 5190.68 L 12196.8 4762.56 L 10926.1 4762.56 L 9652.53 4762.56 L 9652.53 5616.05 L 9652.53 6469.61 L 9232.54 6469.61 L 8812.55 6469.61 L 8812.55 5196.11 Z" style=""/>
      <path d="M 10519.5 6049.61 L 10519.5 5629.62 L 10939.5 5629.62 L 11359.7 5629.62 L 11359.7 6049.61 L 11359.7 6469.61 L 10939.5 6469.61 L 10519.5 6469.61 L 10519.5 6049.61 Z" style=""/>
      <path d="M 13906.6 6049.61 L 13906.6 5629.62 L 14326.6 5629.62 L 14746.6 5629.62 L 14746.6 6049.61 L 14746.6 6469.61 L 14326.6 6469.61 L 13906.6 6469.61 L 13906.6 6049.61 Z" style=""/>
      <path d="M 13906.6 3489.02 L 13906.6 3055.47 L 13486.6 3055.47 L 13066.6 3055.47 L 13066.6 2635.47 L 13066.6 2215.47 L 13906.6 2215.47 L 14746.6 2215.47 L 14746.6 3069.01 L 14746.6 3922.56 L 14326.6 3922.56 L 13906.6 3922.56 L 13906.6 3489.02 Z" style=""/>
      <path d="M 8812.55 2215.47 L 8812.55 1375.48 L 9232.54 1375.48 L 9652.53 1375.48 L 9652.53 1795.47 L 9652.53 2215.47 L 10506.1 2215.47 L 11359.7 2215.47 L 11359.7 1795.47 L 11359.7 1375.48 L 11779.6 1375.48 L 12199.6 1375.48 L 12199.6 1795.47 L 12199.6 2215.47 L 11779.6 2215.47 L 11359.7 2215.47 L 11359.7 2635.47 L 11359.7 3055.47 L 10086.1 3055.47 L 8812.55 3055.47 L 8812.55 2215.47 Z" style=""/>
      <path d="M 16453.8 2635.47 L 16453.8 2215.47 L 16033.8 2215.47 L 15613.8 2215.47 L 15613.8 1795.47 L 15613.8 1375.48 L 16033.8 1375.48 L 16453.8 1375.48 L 16453.8 1795.47 L 16453.8 2212.77 L 16881.9 2220.9 L 17307.3 2229.01 L 17315.4 2643.6 L 17323.5 3055.47 L 16887.3 3055.47 L 16453.8 3055.47 L 16453.8 2635.47 Z" style=""/>
    </g>
  </g>
</svg>