<?xml version="1.0" encoding="utf-8"?>
<svg xmlns="http://www.w3.org/2000/svg" viewBox="43.422 223.499 233.078 241.379" width="233.078px" height="241.379px">
  <rect x="43.422" y="223.499" width="233.078" height="241.379" style="fill: #AEF917" transform="matrix(1, 0, 0, 1, 7.105427357601002e-15, 0)"/>
  <g transform="matrix(0.025446001440286636, 0, 0, -0.025446001440286636, -78.1877670288086, 628.2916870117188)" fill="#223cc3" stroke="none">
    <path d="M8990 14343 l0 -290 -102 -7 c-368 -24 -769 -127 -1128 -290 -532 -242 -1001 -631 -1345 -1116 -291 -411 -485 -900 -567 -1425 -26 -168 -36 -587 -19 -772 133 -1420 1159 -2595 2551 -2922 348 -82 491 -91 1422 -91 l768 0 0 155 0 155 313 2 312 3 3 153 3 152 -316 0 -315 0 0 -156 0 -156 -832 5 c-695 3 -852 7 -947 20 -511 72 -921 225 -1321 493 -498 332 -900 829 -1123 1384 -134 334 -202 660 -214 1028 l-6 192 1281 0 1282 0 2 -302 3 -303 628 -3 627 -2 0 -155 0 -155 155 0 155 0 0 315 0 315 -630 0 -631 0 3 143 3 142 1884 3 1884 2 -6 233 c-7 267 -30 463 -83 702 -39 176 -128 454 -194 610 -450 1059 -1364 1844 -2465 2119 -274 68 -492 96 -797 103 l-238 6 0 -290z m520 -43 c390 -39 802 -165 1165 -354 889 -464 1529 -1318 1720 -2298 28 -143 55 -355 55 -431 l0 -47 -1252 2 -1253 3 -70 23 c-279 94 -470 292 -547 568 l-22 79 -4 1224 c-1 673 -1 1230 2 1237 5 14 5 14 206 -6z m-517 -1522 c3 -881 5 -969 21 -1038 49 -205 127 -359 258 -512 l50 -58 -1581 0 c-1258 0 -1581 3 -1581 13 0 6 13 77 30 157 238 1175 1177 2108 2360 2345 128 26 321 52 397 54 l42 1 4 -962z"/>
    <path d="M9958 12411 c-187 -60 -311 -212 -333 -409 -19 -162 72 -351 212 -440 151 -96 365 -97 512 -3 253 163 293 520 81 732 -122 123 -312 171 -472 120z"/>
    <path d="M11200 9785 l0 -785 785 0 785 0 -2 783 -3 782 -782 3 -783 2 0 -785z m1258 -2 l2 -473 -475 0 -475 0 0 475 0 475 473 -2 472 -3 3 -472z"/>
    <path d="M11830 9785 l0 -155 155 0 155 0 0 155 0 155 -155 0 -155 0 0 -155z"/>
    <path d="M8690 9470 l0 -470 780 0 780 0 0 315 0 316 -152 -3 -153 -3 -3 -157 -3 -158 -469 0 -470 0 0 315 0 315 -155 0 -155 0 0 -470z"/>
    <path d="M9320 9785 l0 -155 155 0 155 0 0 155 0 155 -155 0 -155 0 0 -155z"/>
    <path d="M10570 9785 l0 -155 155 0 155 0 0 155 0 155 -155 0 -155 0 0 -155z"/>
    <path d="M10570 8840 l0 -160 -155 0 -155 0 0 -155 0 -155 310 0 310 0 0 315 0 315 -155 0 -155 0 0 -160z"/>
    <path d="M8690 8370 l0 -310 155 0 155 0 0 155 0 155 315 0 315 0 0 -155 0 -155 155 0 155 0 0 155 0 155 -155 0 -155 0 0 155 0 155 -470 0 -470 0 0 -310z"/>
    <path d="M11510 8525 l0 -155 -155 0 -155 0 0 -155 0 -155 155 0 155 0 0 155 0 154 158 3 157 3 3 153 3 152 -161 0 -160 0 0 -155z"/>
  </g>
</svg>