<?xml version="1.0" encoding="utf-8"?>
<svg xmlns="http://www.w3.org/2000/svg" viewBox="47.253 224.776 555.556 241.379" width="555.556px" height="241.379px">
  <rect x="47.253" y="224.776" width="555.556" height="241.379" style="fill: #ffffff" transform="matrix(1, 0, 0, 1, 7.105427357601002e-15, 0)"/>
  <g transform="matrix(0.025446001440286636, 0, 0, -0.025446001440286636, -78.1877670288086, 623.8217163085938)" fill="#223cc3" stroke="none">
    <path d="M8990 14343 l0 -290 -102 -7 c-368 -24 -769 -127 -1128 -290 -532 -242 -1001 -631 -1345 -1116 -291 -411 -485 -900 -567 -1425 -26 -168 -36 -587 -19 -772 133 -1420 1159 -2595 2551 -2922 348 -82 491 -91 1422 -91 l768 0 0 155 0 155 313 2 312 3 3 153 3 152 -316 0 -315 0 0 -156 0 -156 -832 5 c-695 3 -852 7 -947 20 -511 72 -921 225 -1321 493 -498 332 -900 829 -1123 1384 -134 334 -202 660 -214 1028 l-6 192 1281 0 1282 0 2 -302 3 -303 628 -3 627 -2 0 -155 0 -155 155 0 155 0 0 315 0 315 -630 0 -631 0 3 143 3 142 1884 3 1884 2 -6 233 c-7 267 -30 463 -83 702 -39 176 -128 454 -194 610 -450 1059 -1364 1844 -2465 2119 -274 68 -492 96 -797 103 l-238 6 0 -290z m520 -43 c390 -39 802 -165 1165 -354 889 -464 1529 -1318 1720 -2298 28 -143 55 -355 55 -431 l0 -47 -1252 2 -1253 3 -70 23 c-279 94 -470 292 -547 568 l-22 79 -4 1224 c-1 673 -1 1230 2 1237 5 14 5 14 206 -6z m-517 -1522 c3 -881 5 -969 21 -1038 49 -205 127 -359 258 -512 l50 -58 -1581 0 c-1258 0 -1581 3 -1581 13 0 6 13 77 30 157 238 1175 1177 2108 2360 2345 128 26 321 52 397 54 l42 1 4 -962z"/>
    <path d="M9958 12411 c-187 -60 -311 -212 -333 -409 -19 -162 72 -351 212 -440 151 -96 365 -97 512 -3 253 163 293 520 81 732 -122 123 -312 171 -472 120z"/>
    <path d="M17596 13274 c-94 -29 -176 -143 -176 -244 0 -93 66 -193 151 -230 77 -32 177 -26 245 15 72 45 108 109 112 202 4 64 1 80 -22 128 -32 63 -87 111 -153 131 -57 17 -94 17 -157 -2z"/>
    <path d="M20320 11720 l0 -1530 190 0 190 0 2 515 3 516 495 -515 495 -515 238 -1 238 0 -443 462 c-244 255 -487 509 -541 565 l-99 102 522 528 523 528 -242 3 -243 2 -326 -332 c-179 -183 -393 -400 -474 -483 l-148 -150 0 918 0 917 -190 0 -190 0 0 -1530z"/>
    <path d="M16523 12933 l-183 -56 0 -249 0 -248 -215 0 -215 0 0 -185 0 -185 215 0 214 0 3 -687 c4 -757 2 -728 68 -871 36 -78 124 -168 200 -205 115 -56 197 -70 405 -71 105 -1 211 3 238 7 l47 8 0 169 0 169 -213 3 -214 3 -48 30 c-35 21 -56 44 -74 80 l-26 50 -3 658 -3 657 291 0 290 0 0 185 0 185 -290 0 -290 0 0 305 c0 168 -3 305 -7 304 -5 0 -90 -26 -190 -56z"/>
    <path d="M24730 12944 c-80 -24 -162 -49 -182 -54 l-38 -11 0 -249 0 -250 -215 0 -215 0 0 -185 0 -185 215 0 214 0 3 -687 c4 -758 2 -733 68 -870 46 -93 108 -156 200 -202 123 -61 203 -76 415 -76 99 0 201 4 228 8 l47 8 0 169 0 169 -213 3 -214 3 -48 30 c-35 21 -56 45 -74 80 l-26 49 -3 658 -3 658 291 0 290 0 0 185 0 185 -290 0 -290 0 0 305 c0 168 -3 305 -7 304 -5 0 -73 -20 -153 -45z"/>
    <path d="M14561 12409 c-362 -78 -674 -340 -810 -681 -63 -157 -76 -233 -75 -448 0 -177 3 -204 26 -291 57 -210 150 -372 303 -524 170 -170 368 -274 605 -316 107 -19 335 -17 440 5 228 47 393 134 561 294 117 111 178 193 244 327 103 210 138 448 101 695 -36 236 -131 431 -296 604 -156 165 -330 268 -550 328 -116 31 -420 35 -549 7z m427 -365 c276 -56 500 -271 578 -555 28 -100 26 -319 -4 -423 -77 -270 -296 -481 -559 -540 -104 -23 -288 -21 -387 4 -208 53 -395 207 -491 404 -49 101 -66 174 -72 312 -11 251 63 442 233 605 107 101 223 164 358 194 85 18 251 18 344 -1z"/>
    <path d="M18983 12416 c-218 -41 -399 -135 -559 -288 -107 -103 -169 -183 -228 -297 -96 -187 -132 -359 -123 -600 8 -231 58 -404 165 -571 176 -275 444 -454 762 -511 116 -21 356 -16 466 9 246 56 476 195 623 377 71 88 119 167 106 172 -6 2 -77 44 -160 93 -171 101 -144 102 -225 -10 -80 -112 -237 -214 -390 -256 -47 -13 -103 -18 -200 -18 -161 -1 -222 13 -359 80 -78 39 -110 62 -181 133 -160 158 -230 328 -230 555 0 358 205 642 540 748 66 20 94 23 230 22 140 0 163 -3 235 -27 147 -49 271 -139 355 -259 27 -38 50 -74 52 -80 4 -10 274 138 306 167 12 10 11 18 -4 46 -119 234 -367 421 -661 501 -100 27 -406 35 -520 14z"/>
    <path d="M22837 12415 c-397 -75 -712 -350 -841 -736 -75 -223 -75 -565 0 -788 61 -180 151 -319 298 -458 185 -175 394 -265 681 -294 333 -34 662 56 879 240 69 59 169 169 200 221 l16 28 -161 93 c-127 72 -163 89 -169 78 -46 -81 -165 -186 -266 -234 -238 -112 -594 -90 -821 51 -90 56 -199 172 -245 261 -34 64 -78 188 -78 219 0 12 139 14 914 14 l913 0 7 38 c9 57 7 239 -4 317 -44 310 -212 598 -450 775 -84 62 -229 131 -335 160 -106 29 -418 37 -538 15z m423 -360 c223 -53 417 -233 489 -455 11 -36 25 -86 30 -112 l8 -48 -728 0 c-663 0 -729 1 -729 16 0 36 34 143 66 211 72 150 212 285 360 348 127 53 365 72 504 40z"/>
    <path d="M17490 11285 l0 -1095 190 0 190 0 0 1095 0 1095 -190 0 -190 0 0 -1095z"/>
    <path d="M11200 9785 l0 -785 785 0 785 0 -2 783 -3 782 -782 3 -783 2 0 -785z m1258 -2 l2 -473 -475 0 -475 0 0 475 0 475 473 -2 472 -3 3 -472z"/>
    <path d="M11830 9785 l0 -155 155 0 155 0 0 155 0 155 -155 0 -155 0 0 -155z"/>
    <path d="M21902 9283 c3 -793 5 -873 21 -928 55 -187 166 -289 359 -329 64 -13 198 -22 198 -13 0 1 7 56 15 122 8 65 15 121 15 122 0 2 -18 3 -39 3 -73 0 -169 37 -215 84 -85 84 -81 32 -84 974 l-3 832 -135 0 -135 0 3 -867z"/>
    <path d="M8690 9470 l0 -470 780 0 780 0 0 315 0 316 -152 -3 -153 -3 -3 -157 -3 -158 -469 0 -470 0 0 315 0 315 -155 0 -155 0 0 -470z"/>
    <path d="M9320 9785 l0 -155 155 0 155 0 0 155 0 155 -155 0 -155 0 0 -155z"/>
    <path d="M10570 9785 l0 -155 155 0 155 0 0 155 0 155 -155 0 -155 0 0 -155z"/>
    <path d="M20932 9465 c-87 -19 -198 -76 -266 -136 l-56 -51 0 86 0 86 -135 0 -135 0 0 -1005 0 -1005 135 0 135 0 0 330 0 330 48 -24 c207 -105 543 -91 751 31 79 46 175 141 220 216 110 186 140 483 70 699 -58 176 -178 324 -319 391 -136 64 -302 83 -448 52z m270 -264 c158 -61 258 -236 258 -451 0 -237 -107 -406 -297 -472 -58 -19 -87 -23 -203 -23 -141 1 -210 13 -310 56 l-50 21 0 343 0 342 63 60 c71 68 134 108 215 134 80 27 243 22 324 -10z"/>
    <path d="M23035 9464 c-88 -19 -235 -89 -299 -142 -110 -91 -207 -251 -242 -397 -24 -98 -24 -295 0 -400 71 -320 310 -516 630 -517 114 -1 194 17 293 64 72 34 173 121 214 187 24 38 29 41 35 25 45 -126 122 -214 225 -257 l37 -15 58 106 c33 59 60 111 62 117 1 6 -17 25 -41 42 -28 19 -53 49 -68 79 l-24 49 -3 523 -3 522 -124 0 -125 0 0 -35 c0 -19 -5 -35 -10 -35 -6 0 -38 11 -73 25 -119 49 -205 67 -342 71 -91 2 -151 -1 -200 -12z m440 -262 c39 -12 92 -30 118 -41 l47 -20 0 -233 c0 -260 -9 -321 -62 -420 -160 -301 -595 -319 -763 -33 -35 60 -65 183 -65 265 0 248 129 435 341 495 77 21 289 14 384 -13z"/>
    <path d="M23965 9432 c3 -11 138 -317 299 -682 l294 -663 -29 -68 c-94 -221 -216 -334 -376 -347 -35 -2 -63 -6 -63 -9 0 -2 11 -55 25 -119 14 -64 25 -118 25 -121 0 -3 35 -3 78 0 220 17 369 133 498 386 20 39 177 423 349 854 l313 782 -136 3 c-74 1 -139 -1 -143 -5 -4 -4 -91 -231 -194 -503 -103 -272 -192 -506 -197 -520 -8 -22 -38 42 -235 503 l-225 527 -145 0 c-136 0 -144 -1 -138 -18z"/>
    <path d="M10570 8840 l0 -160 -155 0 -155 0 0 -155 0 -155 310 0 310 0 0 315 0 315 -155 0 -155 0 0 -160z"/>
    <path d="M8690 8370 l0 -310 155 0 155 0 0 155 0 155 315 0 315 0 0 -155 0 -155 155 0 155 0 0 155 0 155 -155 0 -155 0 0 155 0 155 -470 0 -470 0 0 -310z"/>
    <path d="M11510 8525 l0 -155 -155 0 -155 0 0 -155 0 -155 155 0 155 0 0 155 0 154 158 3 157 3 3 153 3 152 -161 0 -160 0 0 -155z"/>
  </g>
</svg>